<?xml version="1.0" encoding="utf-8"?>
<!-- Generator: Adobe Illustrator 19.0.0, SVG Export Plug-In . SVG Version: 6.00 Build 0)  -->
<svg version="1.1" id="图层_1" xmlns="http://www.w3.org/2000/svg" xmlns:xlink="http://www.w3.org/1999/xlink" x="0px" y="0px"
	 viewBox="-370 518.5 571 79.3" style="enable-background:new -370 518.5 571 79.3;" xml:space="preserve">
<style type="text/css">
	.st0{fill:#606060;}
	.st1{fill:#CCCCCC;}
</style>
<g id="XMLID_432_">
	<path id="XMLID_433_" class="st0" d="M-288.7,548.1c-4-1.7-8.8-2.6-14.2-2.6c-3.6,0-7.6,0.4-11.8,1.2l-0.2,0
		c-0.2,0-0.5,0.1-0.8,0.2l0,0l0,0l0,0l0,0l1.6-23.8h34.4v-4.5h-38.6l-1.7,25.5l-0.6,8.6c3.9-1.1,7.5-1.8,10.9-2.3
		c1.5-0.2,3-0.3,4.6-0.4c0.7,0,1.5,0,2.2,0c0.7,0,1.3,0,2,0c1.3,0.1,2.6,0.2,3.7,0.3c1.2,0.2,2.3,0.4,3.3,0.6c1,0.3,2,0.6,2.9,0.9
		c0.8,0.3,1.7,0.7,2.5,1.1c0.8,0.4,1.5,0.9,2.1,1.3c0.6,0.5,1.2,1,1.8,1.5c0.5,0.5,1,1,1.5,1.6c0.5,0.6,0.9,1.2,1.2,1.8
		c0.3,0.5,0.7,1.2,1,1.9c0.3,0.7,0.6,1.4,0.8,2c0.2,0.7,0.4,1.4,0.5,2.1c0.1,0.7,0.2,1.5,0.3,2.2c0.1,0.8,0.1,1.5,0.1,2.3
		c0,0.7,0,1.5-0.1,2.3c-0.1,0.7-0.2,1.4-0.3,2.2c-0.2,0.7-0.3,1.4-0.6,2.1c-0.2,0.6-0.5,1.3-0.8,2c-0.3,0.6-0.6,1.3-1,1.9
		c-0.4,0.6-0.8,1.2-1.2,1.8c-0.4,0.5-0.9,1.1-1.4,1.7c-0.5,0.5-1,1-1.6,1.5c-0.6,0.5-1.2,1-1.8,1.4c-0.7,0.5-1.3,0.9-2,1.2
		c-0.7,0.4-1.4,0.8-2.2,1.1c-0.8,0.3-1.6,0.6-2.4,0.9c-0.8,0.3-1.7,0.5-2.6,0.7c-0.9,0.2-1.9,0.4-2.8,0.5c-1.1,0.1-2.1,0.2-3,0.2
		l-0.2,0c-0.3,0-0.7,0-1.1,0c-0.7,0-1.3,0-1.9,0c-1,0-2-0.1-3-0.3c-1-0.2-2-0.4-2.9-0.6c-0.5-0.1-0.9-0.2-1.4-0.4
		c-0.4-0.1-0.8-0.2-1.3-0.4c-0.4-0.1-0.8-0.3-1.2-0.5c-0.4-0.1-0.7-0.3-1.2-0.5c-0.4-0.2-0.7-0.3-1.1-0.5c-0.3-0.1-0.5-0.3-0.8-0.4
		c-0.3-0.2-0.6-0.3-0.9-0.5l-0.1-0.1c-0.2-0.1-0.4-0.3-0.6-0.4l-0.1-0.1c-0.1-0.1-0.1-0.1-0.2-0.2c0,0-0.1-0.1-0.1-0.1l0,0
		c0,0,0,0-0.1-0.1l-2.8,3.4c3.3,2.7,10.1,5.7,17.6,6c0.2,0,0.3,0,0.5,0l0.2,0c0.3,0,0.6,0,0.8,0l0.1,0c0.2,0,0.3,0,0.5,0
		c17.4,0,29.5-10.7,29.5-26.1C-274.9,559.8-279.9,551.8-288.7,548.1z"/>
	<path id="XMLID_434_" class="st0" d="M-362.9,527.6l0,0.1l0.1,0c5.1-1.2,8.9-2.3,11.4-3.1l0.4-0.1v70.8h4.7v-76.6v-0.1h-0.1h-3.7h0
		l0,0c-3.4,1.5-8.3,3.1-13,4.4l-0.1,0l0,0.1L-362.9,527.6z M-350.9,524.4L-350.9,524.4C-351,524.4-351,524.4-350.9,524.4
		L-350.9,524.4z M-362.8,527.6C-362.8,527.6-362.8,527.6-362.8,527.6l0-0.6L-362.8,527.6z"/>
</g>
<g id="XMLID_453_">
	<g id="XMLID_454_">
		<path id="XMLID_455_" class="st0" d="M-100,548.6c-4.1-1.8-9-2.6-14.5-2.6c-3.7,0-7.8,0.4-12.1,1.2l-0.3,0.1
			c-0.2,0-0.5,0.1-0.8,0.2l0,0l0,0l0,0l0,0l1.6-24.3h35.2v-4.6h-39.5l-1.8,26.1l-0.6,8.8c4-1.1,7.6-1.9,11.2-2.3
			c1.5-0.2,3.1-0.3,4.7-0.4c0.8,0,1.5-0.1,2.3-0.1c0.7,0,1.4,0,2,0c1.3,0.1,2.6,0.2,3.8,0.3c1.2,0.2,2.3,0.4,3.4,0.7
			c1,0.3,2,0.6,2.9,0.9c0.8,0.3,1.7,0.7,2.5,1.2c0.8,0.4,1.5,0.9,2.2,1.4c0.7,0.5,1.3,1,1.8,1.5c0.5,0.5,1,1,1.5,1.7
			c0.5,0.6,0.9,1.2,1.3,1.8c0.3,0.6,0.7,1.2,1,1.9c0.3,0.7,0.6,1.4,0.8,2.1c0.2,0.7,0.4,1.5,0.6,2.2c0.1,0.7,0.3,1.5,0.3,2.3
			c0.1,0.8,0.1,1.6,0.1,2.3c0,0.8,0,1.5-0.1,2.3c-0.1,0.7-0.2,1.5-0.3,2.3c-0.2,0.7-0.3,1.5-0.6,2.2c-0.2,0.7-0.5,1.4-0.8,2.1
			c-0.3,0.6-0.6,1.3-1,1.9c-0.4,0.6-0.8,1.2-1.2,1.8c-0.4,0.6-0.9,1.1-1.4,1.7c-0.5,0.5-1,1.1-1.6,1.6c-0.6,0.5-1.2,1-1.8,1.4
			c-0.7,0.5-1.4,0.9-2,1.3c-0.7,0.4-1.5,0.8-2.2,1.1c-0.8,0.3-1.6,0.7-2.5,0.9c-0.9,0.3-1.8,0.5-2.7,0.7c-0.9,0.2-1.9,0.4-2.9,0.5
			c-1.1,0.1-2.1,0.2-3.1,0.2l-0.2,0c-0.3,0-0.7,0-1.1,0c-0.7,0-1.4,0-2,0c-1,0-2-0.2-3.1-0.3c-1-0.2-2-0.4-3-0.6
			c-0.5-0.1-1-0.3-1.4-0.4c-0.4-0.1-0.8-0.3-1.3-0.4c-0.4-0.1-0.9-0.3-1.3-0.5c-0.4-0.1-0.7-0.3-1.2-0.5c-0.4-0.2-0.7-0.3-1.1-0.5
			c-0.3-0.1-0.5-0.3-0.8-0.4c-0.3-0.2-0.6-0.3-0.9-0.5l-0.1-0.1c-0.2-0.1-0.4-0.3-0.6-0.4l-0.1-0.1c-0.1-0.1-0.2-0.1-0.2-0.2
			c0,0-0.1-0.1-0.1-0.1l0,0c0,0,0,0-0.1-0.1l-2.9,3.5c3.4,2.8,10.3,5.8,18,6.1c0.2,0,0.3,0,0.5,0l0.2,0c0.3,0,0.6,0,0.9,0l0.1,0
			c0.2,0,0.4,0,0.5,0c17.8,0,30.2-11,30.2-26.7C-85.8,560.5-91,552.4-100,548.6z"/>
		<path id="XMLID_456_" class="st0" d="M-175.8,527.7l0,0.1l0.1,0c5.2-1.2,9.1-2.4,11.7-3.1l0.4-0.1v72.4h4.8v-78.4v-0.1h-0.1h-3.8
			h0l0,0c-3.5,1.5-8.4,3.2-13.3,4.5l-0.1,0l0,0.1L-175.8,527.7z M-163.6,524.4L-163.6,524.4C-163.6,524.4-163.7,524.4-163.6,524.4
			L-163.6,524.4z M-175.7,527.6C-175.7,527.6-175.7,527.6-175.7,527.6l0-0.7L-175.7,527.6z"/>
	</g>
	<g id="XMLID_460_">
		<path id="XMLID_461_" class="st0" d="M-18,520.8C-18,520.8-18,520.8-18,520.8L-18,520.8h-27.7v48.6v1.3v26.2h4.6v-26.2h23l0,0
			c0,0,0.1,0,0.1,0c13.8,0,25-11.2,25-25C7,531.9-4.2,520.8-18,520.8z M-18,566.1C-18,566.1-18,566.1-18,566.1L-18,566.1H-41v-40.7
			h23v0c0,0,0.1,0,0.1,0c11.2,0,20.3,9.1,20.3,20.4C2.4,557-6.7,566.1-18,566.1z"/>
		<g id="XMLID_464_">
			<path id="XMLID_465_" class="st0" d="M167,597.7c-10.9,0-23.5-3.9-28.9-16.2l4.1-1.8c3.8,8.6,11.6,11.7,17.5,12.8
				c7.3,1.4,15,0.4,19.3-1.2c8.7-3.3,10.5-10.1,10.5-15.3c0-10.2-11.8-14.3-21.3-17.6c-0.7-0.2-1.4-0.5-2-0.7l-0.5-0.2
				c-11.5-4-22.3-7.9-22.3-19.3c0-6.8,4.5-12.5,12.4-15.6c3.6-1.4,7.8-2.1,12.1-2.1c10.8,0,19.3,4.9,23.3,9.2l-3.3,3.1
				c-0.7-0.8-7.6-7.8-20-7.8c-3.7,0-7.3,0.6-10.5,1.8c-6.1,2.4-9.6,6.5-9.6,11.4c0,7.9,7.3,10.9,19.3,15.1l0.5,0.2
				c0.7,0.2,1.3,0.5,2,0.7c10.3,3.6,24.3,8.5,24.3,21.8c0,5.4-1.8,15.1-13.5,19.5C177.1,596.8,172.3,597.7,167,597.7z"/>
		</g>
		<path id="XMLID_466_" class="st0" d="M122.1,522.2v50.4c0,6-2.1,11.1-6.2,14.8c-4.2,3.8-10.3,5.8-17.6,5.8c-7.3,0-13.3-2-17.6-5.8
			c-4.1-3.6-6.2-8.7-6.2-14.8v-50.4H70v50.4c0,15,11.2,25.1,28.3,25.1c17.2,0,28.3-10.1,28.3-25.1v-50.4H122.1z"/>
		<polygon id="XMLID_467_" class="st0" points="56.7,592.3 28.2,592.3 28.2,522.2 23.5,522.2 23.5,592.3 23.5,596.9 56.7,596.9 
			56.7,596.9 56.7,592.4 56.7,592.4 		"/>
	</g>
</g>
<rect x="-225.8" y="529.5" class="st1" width="3" height="55"/>
</svg>
