<?xml version="1.0" encoding="iso-8859-1"?>
<!-- Generator: Adobe Illustrator 19.0.0, SVG Export Plug-In . SVG Version: 6.00 Build 0)  -->
<svg version="1.1" id="&#x56FE;&#x5C42;_1" xmlns="http://www.w3.org/2000/svg" xmlns:xlink="http://www.w3.org/1999/xlink" x="0px"
	 y="0px" width="598px" height="260px" viewBox="0 0 598 260" style="enable-background:new 0 0 598 260;" xml:space="preserve">
<g id="XMLID_387_">
	<path id="XMLID_388_" d="M475.193,121.477c-8.091-3.433-17.645-5.174-28.394-5.174
		c-7.266,0-15.224,0.815-23.654,2.419l-0.499,0.1c-0.487,0.097-1.045,0.206-1.586,0.323l-0.067,0.017l0.001-0.023l-0.079,0.015
		l0.006-0.069l3.186-47.554h68.882V62.6h-77.215l-3.432,50.996l-1.125,17.117c7.802-2.173,14.941-3.66,21.826-4.55
		c2.971-0.398,6.078-0.679,9.221-0.834c1.498-0.065,2.981-0.098,4.409-0.098c1.332,0,2.645,0.028,3.91,0.084
		c2.619,0.106,5.116,0.336,7.418,0.683c2.378,0.344,4.588,0.779,6.567,1.29c2.042,0.538,3.968,1.158,5.735,1.84
		c1.645,0.626,3.311,1.391,4.96,2.273c1.532,0.836,2.962,1.732,4.249,2.665c1.285,0.929,2.494,1.935,3.592,2.989
		c0.996,0.933,2.01,2.036,3.019,3.276c0.926,1.168,1.761,2.365,2.479,3.556c0.681,1.094,1.331,2.337,1.988,3.798
		c0.606,1.373,1.121,2.735,1.527,4.048c0.462,1.466,0.826,2.893,1.077,4.243c0.28,1.441,0.494,2.923,0.632,4.401
		c0.142,1.587,0.211,3.071,0.211,4.535c0,1.479-0.081,3.018-0.238,4.577c-0.132,1.403-0.348,2.845-0.666,4.407
		c-0.301,1.423-0.681,2.85-1.119,4.241c-0.403,1.288-0.92,2.651-1.535,4.052c-0.538,1.226-1.188,2.51-1.934,3.814
		c-0.71,1.232-1.501,2.441-2.346,3.603c-0.789,1.078-1.715,2.209-2.755,3.361c-0.968,1.055-2.029,2.096-3.154,3.097
		c-1.159,1.018-2.359,1.962-3.559,2.802c-1.337,0.94-2.672,1.781-3.974,2.5c-1.381,0.78-2.855,1.511-4.379,2.173
		c-1.585,0.684-3.204,1.287-4.814,1.794c-1.662,0.536-3.424,1.006-5.233,1.4c-1.851,0.395-3.76,0.717-5.666,0.959
		c-2.164,0.249-4.156,0.404-6.097,0.472l-0.425,0.01c-0.648,0.013-1.454,0.031-2.229,0.031c-1.404,0-2.667-0.029-3.861-0.091
		c-1.972-0.094-4.007-0.299-6.055-0.605c-1.998-0.308-3.943-0.7-5.773-1.166c-0.951-0.236-1.871-0.492-2.748-0.758
		c-0.792-0.232-1.621-0.5-2.61-0.845c-0.842-0.292-1.67-0.602-2.465-0.921c-0.7-0.273-1.46-0.593-2.309-0.981
		c-0.773-0.348-1.465-0.681-2.118-1.025c-0.536-0.267-1.006-0.524-1.552-0.827c-0.594-0.332-1.181-0.678-1.734-1.031l-0.264-0.175
		c-0.427-0.282-0.829-0.546-1.206-0.827l-0.199-0.142c-0.16-0.114-0.299-0.219-0.44-0.332c-0.072-0.054-0.141-0.11-0.214-0.166
		l-0.084-0.069c-0.048-0.035-0.089-0.072-0.136-0.107l-5.695,6.866c6.668,5.472,20.12,11.305,35.175,12.024
		c0.324,0.015,0.648,0.025,0.959,0.035l0.371,0.012c0.562,0.018,1.125,0.031,1.681,0.038l0.257,0.004
		c0.338,0.006,0.693,0.012,1.024,0.012c34.761,0,59.037-21.474,59.037-52.216C502.953,144.833,492.834,128.999,475.193,121.477z"/>
	<path id="XMLID_389_" d="M326.865,80.545l0.012,0.214l0.208-0.046c10.104-2.306,17.803-4.618,22.895-6.151
		l0.731-0.218v141.673h9.386V62.729v-0.18h-0.182h-7.355h-0.038l-0.035,0.015c-6.801,2.996-16.512,6.281-25.964,8.784l-0.142,0.04
		l0.007,0.146L326.865,80.545z M350.805,74.102v0.027c-0.062,0.018-0.129,0.038-0.192,0.056L350.805,74.102z M327.06,80.531
		c-0.004,0.001-0.007,0.003-0.013,0.005l-0.069-1.281L327.06,80.531z"/>
</g>
<polygon id="XMLID_393_" points="187.239,213.913 191.102,213.913 271.88,69.35 272.221,68.739 
	272.221,69.439 272.221,217.472 281.76,217.472 281.76,58.525 266.916,58.525 189.328,197.24 189.169,197.523 189.011,197.24 
	111.423,58.525 96.579,58.525 96.579,217.472 106.118,217.472 106.118,69.439 106.118,68.739 106.458,69.35 "/>
</svg>
