<?xml version="1.0" encoding="utf-8"?>
<!-- Generator: Adobe Illustrator 17.0.0, SVG Export Plug-In . SVG Version: 6.00 Build 0)  -->
<!DOCTYPE svg PUBLIC "-//W3C//DTD SVG 1.1//EN" "http://www.w3.org/Graphics/SVG/1.1/DTD/svg11.dtd">
<svg version="1.1" id="图层_1" xmlns="http://www.w3.org/2000/svg" xmlns:xlink="http://www.w3.org/1999/xlink" x="0px" y="0px"
	 width="135.547px" height="36.605px" viewBox="0 0 135.547 36.605" enable-background="new 0 0 135.547 36.605"
	 xml:space="preserve">
<path d="M16.186,23.067v6.125c0,0.638,0.517,1.155,1.155,1.155h5.63v-2.206h-4.573v-5.074H16.186z"/>
<path d="M35.649,32.075c-0.35,1.262-1.339,1.778-3.412,1.778H15.309c-2.081,0-2.818-0.752-2.818-2.874v-7.912h-2.471
	c0,0,0.46-1.81,0.736-3.501h7.643V4.553c0-0.638-0.517-1.155-1.155-1.155H8.879V0H6.346v3.398H3.061
	c-0.638,0-1.155,0.517-1.155,1.155v15.013h6.405C7.467,25.11,4.699,30.15,0,34.639c1.054,0.748,1.932,1.966,1.932,1.966
	c5.323-5.259,7.185-10.326,8.087-13.38v7.943c0,3.904,1.315,5.157,5.41,5.157h16.961c3.346,0,5.051-1.079,5.704-3.611
	c0.293-0.975,0.496-2.139,0.608-3.471l-2.338-0.638C36.168,29.98,35.927,31.147,35.649,32.075z M11.311,5.851h4.711v4.423h-4.711
	V5.851z M11.309,12.697h4.714v4.449h-4.981C11.294,14.797,11.309,12.697,11.309,12.697z M8.677,17.146H4.328v-4.449H8.92
	C8.92,13.155,8.949,15.163,8.677,17.146z M9.044,10.275H4.328V5.851h4.716V10.275z"/>
<path d="M20.603,22.806c0.562,0.528,1.02,1.104,1.63,1.969c1.693-1.348,4.492-4.678,5.825-7.919l0.001,13.47h2.534
	V16.938c1.164,2.383,3.724,5.814,6.39,7.851c0.574-0.689,1.297-1.623,1.634-2.019c-4.736-3.378-6.74-6.613-7.898-9.187h6.796v-2.421
	h-6.922V5.835h6.922V3.414h-6.922V0h-2.534v3.414h-6.632v2.421h6.632v5.328h-6.632v2.421h6.48
	C26.432,17.017,24.092,20.025,20.603,22.806z"/>
<rect x="63.066" y="17.916" width="14.051" height="2.47"/>
<path d="M77.117,11.161h-11.4V8.568h-2.65v3.908c0,0.638,0.517,1.156,1.155,1.156h12.895V11.161z"/>
<rect x="55.64" y="8.568" width="2.649" height="12.262"/>
<rect x="47.76" y="8.568" width="2.65" height="12.262"/>
<polygon points="79.664,3.413 72.499,3.413 72.499,0 69.965,0 69.965,3.413 54.632,3.413 54.632,0 52.098,0 
	52.098,3.413 44.936,3.413 44.936,5.836 79.664,5.836 "/>
<path d="M77.109,33.726v-8.47c0-0.638-0.517-1.155-1.155-1.155H48.647c-0.638,0-1.155,0.517-1.155,1.155v8.47h-3.063
	v2.47h35.743v-2.47H77.109z M56.602,33.726h-6.577V26.57h6.577V33.726z M65.468,33.726h-6.333V26.57h6.333V33.726z M74.576,33.726
	h-6.573V26.57h6.573V33.726z"/>
<path d="M135.547,3.413v2.422h-9.128v30.361h-3.12V5.835h-9.128V3.413H135.547z M100.47,16.529
	c-1.594,0-5.18,0.274-8.267,0.878c0.529-11.365,7.224-11.337,15.3-11.596l-0.196-2.398c-14.827,0-18.033,4.746-18.135,19.933
	c-0.077,11.429,4.856,13.26,10.652,13.26c7.234,0,10.905-2.013,10.905-10.225C110.729,18.413,107.387,16.529,100.47,16.529z
	 M99.492,18.902c6.213,0,8.505,1.15,8.505,7.406c0,5.666-1.313,7.881-8.302,7.881c-3.608,0-7.79-1.298-7.79-10.153
	c0-1.324-0.003-2.43,0.098-4.213C94.619,19.277,98.213,18.902,99.492,18.902z"/>
</svg>
